# xmcd
#
# Track frame offsets:
#	150
#	19890
#	28465
#	53630
#	70945
#	84930
#	114707
#	141100
#	157165
#	174352
#	197415
#	222792
#
# Disc length: 3168 seconds
#
# Revision: 1
# Processed by: cddbd v1.5.2PL0 Copyright (c) Steve Scherf et al.
# Submitted via: audiograbber 1.83.01
#
DISCID=a50c5e0c
DTITLE=Johnny B - Slide Bar And Grill
DYEAR=2000
DGENRE=Blues
TTITLE0=Home Stretch
TTITLE1=Blues Thing
TTITLE2=Headin´ Home
TTITLE3=The Waltz I Wrote For You
TTITLE4=Rain Chime
TTITLE5=Inna Jam
TTITLE6=If I Only Had Wings
TTITLE7=Six White Horses
TTITLE8=Upbringing
TTITLE9=The Sweetest Smile I´ve Ever Seen
TTITLE10=Stream Of Memories
TTITLE11=Funky Thumb
EXTD=
EXTT0=
EXTT1=
EXTT2=
EXTT3=
EXTT4=
EXTT5=
EXTT6=
EXTT7=
EXTT8=
EXTT9=
EXTT10=
EXTT11=
PLAYORDER=
